<svg width="962" height="77" viewBox="0 0 962 77" fill="none" xmlns="http://www.w3.org/2000/svg">
<g filter="url(#filter0_d_1_8)">
<path d="M4.45938 0.799997H69.9594V15.2H18.9594V26.9H62.4594V41.3H18.9594V55.5H69.9594V70H4.45938V0.799997ZM137.559 70V47.1H93.2594V70H78.8594V26.8C78.8594 9.46666 88.0594 0.799997 106.459 0.799997H124.359C142.759 0.799997 151.959 9.46666 151.959 26.8V70H137.559ZM93.2594 32.6H137.559V24.4C137.559 18.2667 133.493 15.2 125.359 15.2H105.459C97.326 15.2 93.2594 18.2667 93.2594 24.4V32.6ZM154.466 0.799997H214.766V15.2H191.866V70H177.366V15.2H154.466V0.799997ZM237.34 70H222.84V0.799997H237.34V25.8H276.14V0.799997H290.64V70H276.14V40.2H237.34V70ZM306.727 0.799997H372.227V15.2H321.227V26.9H364.727V41.3H321.227V55.5H372.227V70H306.727V0.799997ZM448.996 21C448.996 23.5333 448.563 25.9333 447.696 28.2C446.829 30.4667 445.629 32.5 444.096 34.3C442.563 36.0333 440.763 37.5 438.696 38.7C436.629 39.9 434.396 40.7 431.996 41.1L450.696 70H433.496L414.896 41.3H397.496V70H382.996V0.799997H429.596C432.263 0.933328 434.763 1.53333 437.096 2.6C439.496 3.66666 441.563 5.13333 443.296 6.99999C445.096 8.8 446.496 10.9 447.496 13.3C448.496 15.7 448.996 18.2667 448.996 21ZM428.696 26.9C430.363 26.9 431.763 26.3333 432.896 25.2C434.029 24.0667 434.596 22.6667 434.596 21C434.596 19.4 434.029 18.0333 432.896 16.9C431.763 15.7667 430.363 15.2 428.696 15.2H397.496V26.9H428.696ZM514.199 70C495.733 70 486.499 61.3 486.499 43.9V26.9C486.499 9.5 495.733 0.799997 514.199 0.799997H556.799V15.2H513.199C505.066 15.2 500.999 18.2667 500.999 24.4V46.3C500.999 52.4333 505.066 55.5 513.199 55.5H556.799V70H514.199ZM607.22 0.799997C625.62 0.799997 634.82 9.46666 634.82 26.8V44C634.82 61.3333 625.62 70 607.22 70H589.32C570.92 70 561.72 61.3333 561.72 44V26.8C561.72 9.46666 570.92 0.799997 589.32 0.799997H607.22ZM620.42 24.4C620.42 18.2667 616.354 15.2 608.22 15.2H588.32C580.187 15.2 576.12 18.2667 576.12 24.4V46.4C576.12 52.5333 580.187 55.6 588.32 55.6H608.22C616.354 55.6 620.42 52.5333 620.42 46.4V24.4ZM711.887 21C711.887 23.5333 711.453 25.9333 710.587 28.2C709.72 30.4667 708.52 32.5 706.987 34.3C705.453 36.0333 703.653 37.5 701.587 38.7C699.52 39.9 697.287 40.7 694.887 41.1L713.587 70H696.387L677.787 41.3H660.387V70H645.887V0.799997H692.487C695.153 0.933328 697.653 1.53333 699.987 2.6C702.387 3.66666 704.453 5.13333 706.187 6.99999C707.987 8.8 709.387 10.9 710.387 13.3C711.387 15.7 711.887 18.2667 711.887 21ZM691.587 26.9C693.253 26.9 694.653 26.3333 695.787 25.2C696.92 24.0667 697.487 22.6667 697.487 21C697.487 19.4 696.92 18.0333 695.787 16.9C694.653 15.7667 693.253 15.2 691.587 15.2H660.387V26.9H691.587ZM786.424 0.799997H803.024L766.724 64.2C765.658 65.9333 764.258 67.3333 762.524 68.4C760.791 69.4667 758.891 70 756.824 70C754.758 70 752.824 69.4667 751.024 68.4C749.291 67.3333 747.924 65.9333 746.924 64.2L710.524 0.799997H727.224L756.824 52.4L786.424 0.799997ZM879.92 0.799997V43.9C879.92 61.3 870.686 70 852.22 70H834.32C815.92 70 806.72 61.3 806.72 43.9V0.799997H821.22V46.3C821.22 52.4333 825.286 55.5 833.42 55.5H853.22C861.353 55.5 865.42 52.4333 865.42 46.3V0.799997H879.92ZM888.213 70V55.5H937.513C939.047 55.5 940.38 54.9333 941.513 53.8C942.647 52.6667 943.213 51.3333 943.213 49.8C943.213 48.2667 942.647 46.9333 941.513 45.8C940.38 44.6 939.047 44 937.513 44H909.813C906.88 44 904.08 43.4333 901.413 42.3C898.813 41.1667 896.513 39.6333 894.513 37.7C892.58 35.7 891.047 33.4 889.913 30.8C888.78 28.1333 888.213 25.3333 888.213 22.4C888.213 19.4667 888.78 16.7 889.913 14.1C891.047 11.4333 892.58 9.13333 894.513 7.2C896.513 5.2 898.813 3.63333 901.413 2.5C904.08 1.36666 906.88 0.799997 909.813 0.799997H957.713V15.2H909.813C907.88 15.2 906.18 15.9333 904.713 17.4C903.313 18.8 902.613 20.4667 902.613 22.4C902.613 24.3333 903.313 26.0333 904.713 27.5C906.18 28.9 907.88 29.6 909.813 29.6H937.513C940.313 29.6 942.913 30.1333 945.313 31.2C947.78 32.2667 949.913 33.7333 951.713 35.6C953.58 37.4 955.047 39.5333 956.113 42C957.18 44.4 957.713 47 957.713 49.8C957.713 52.6 957.18 55.2333 956.113 57.7C955.047 60.1 953.58 62.2333 951.713 64.1C949.913 65.9 947.78 67.3333 945.313 68.4C942.913 69.4667 940.313 70 937.513 70H888.213Z" fill="white"/>
</g>
<defs>
<filter id="filter0_d_1_8" x="0.977238" y="0.799995" width="960.218" height="76.1643" filterUnits="userSpaceOnUse" color-interpolation-filters="sRGB">
<feFlood flood-opacity="0" result="BackgroundImageFix"/>
<feColorMatrix in="SourceAlpha" type="matrix" values="0 0 0 0 0 0 0 0 0 0 0 0 0 0 0 0 0 0 127 0" result="hardAlpha"/>
<feOffset dy="3.48214"/>
<feGaussianBlur stdDeviation="1.74107"/>
<feComposite in2="hardAlpha" operator="out"/>
<feColorMatrix type="matrix" values="0 0 0 0 0 0 0 0 0 0 0 0 0 0 0 0 0 0 0.25 0"/>
<feBlend mode="normal" in2="BackgroundImageFix" result="effect1_dropShadow_1_8"/>
<feBlend mode="normal" in="SourceGraphic" in2="effect1_dropShadow_1_8" result="shape"/>
</filter>
</defs>
</svg>
