<svg width="1002" height="1002" viewBox="0 0 1002 1002" fill="none" xmlns="http://www.w3.org/2000/svg">
<path d="M495.184 507.341C495.364 507.969 495.085 508.608 494.345 509.257C493.058 508.867 492.129 507.843 491.561 506.185C492.722 504.392 494.548 503.389 497.038 503.177C499.025 505.313 499.803 508.038 499.37 511.351C496.242 513.313 492.754 513.62 488.908 512.27C487.348 508.013 487.782 503.743 490.209 499.46C495.386 498.565 500.114 499.991 504.395 503.739C504.293 509.889 501.734 515.016 496.717 519.12C490.022 517.741 484.959 513.815 481.526 507.341C484.356 500.136 489.583 495.27 497.205 492.743C504.33 497.295 508.487 504.014 509.676 512.9C503.477 519.824 495.582 523.076 485.994 522.656C479.92 514.576 478.021 505.375 480.297 495.053C489.884 490.024 499.829 489.718 510.134 494.134C513.538 505.4 511.982 516.146 505.468 526.373C493.193 527.9 482.396 524.225 473.077 515.346C473.8 501.968 479.588 491.146 490.442 482.88C504.019 486.137 514.03 494.29 520.474 507.341C514.632 521.121 504.459 530.214 489.954 534.619C476.992 525.905 469.606 513.491 467.795 497.377C479.034 485.322 492.996 479.821 509.683 480.874C519.845 494.898 522.865 510.574 518.744 527.904C502.7 536 486.296 536.307 469.534 528.824C464.286 510.55 466.962 493.327 477.564 477.157C496.937 474.997 513.803 480.921 528.161 494.931C526.816 515.537 517.799 532.054 501.109 544.482C480.649 539.347 465.691 526.967 456.235 507.341C465.088 486.984 480.209 473.664 501.597 467.381C520.395 480.257 531.01 498.366 533.442 521.708C517.165 538.894 497.134 546.644 473.348 544.959C459.1 524.991 454.958 502.838 460.923 478.5C483.426 467.338 506.287 467.031 529.508 477.58C536.6 502.863 532.802 526.562 518.114 548.676C491.642 551.468 468.707 543.294 449.311 524.154C451.276 496.32 463.523 474.107 486.05 457.518C513.393 464.531 533.298 481.138 545.765 507.341C533.9 534.273 513.832 551.82 485.562 559.981C460.926 542.944 447.082 519.14 444.03 488.569C465.345 466.253 491.445 456.253 522.329 458.571C540.664 484.482 545.927 513.111 538.118 544.458C509.158 558.687 479.838 558.993 450.16 545.378C441.223 513.086 446.143 482.912 464.918 454.854C498.489 451.429 527.491 461.852 551.926 486.122C549.34 521.185 533.865 549.093 505.5 569.844C471.275 560.953 446.423 540.119 430.944 507.341C445.82 473.832 470.835 452.058 505.988 442.019C536.461 463.218 553.534 492.717 557.208 530.516C530.854 557.963 498.686 570.212 460.703 567.262C438.281 535.407 431.896 500.302 441.549 461.946C476.968 444.651 512.745 444.344 548.882 461.026C559.662 500.326 553.622 536.977 530.759 570.979C490.09 575.036 455.019 562.364 425.545 532.963C428.753 490.671 447.457 457.069 481.658 432.156C522.767 442.924 552.566 467.986 571.056 507.341C553.168 547.426 523.206 573.427 481.17 585.344C444.861 559.982 424.559 524.788 420.264 479.761C451.657 447.183 489.893 432.685 534.974 436.268C561.484 474.066 568.99 515.648 557.492 561.012C515.616 581.374 473.38 581.68 430.786 561.932C418.161 515.623 425.323 472.496 452.273 432.551C500.04 427.861 541.18 442.782 575.692 477.314C571.864 526.834 549.93 566.131 509.892 595.207C461.901 582.56 427.155 553.271 405.653 507.341C426.552 460.679 461.461 430.451 510.38 416.656C552.527 446.18 576.058 487.069 580.973 539.324C544.542 577.033 500.237 593.78 448.058 589.565C417.461 545.823 408.834 497.765 422.175 445.392C470.51 421.964 519.203 421.657 568.255 444.472C582.725 497.79 574.441 547.393 543.405 593.282C488.539 598.604 441.33 581.433 401.78 541.771C406.229 485.023 431.392 440.031 477.267 406.793C532.141 421.318 571.834 454.834 596.347 507.341C572.436 560.578 532.58 595.033 476.779 610.706C428.795 577.021 402.035 530.436 396.498 470.953C437.968 428.114 488.342 409.118 547.62 413.965C582.303 463.65 592.052 518.184 576.866 577.566C522.074 604.061 466.922 604.367 411.412 578.486C395.099 518.16 404.504 462.08 439.627 410.247C501.592 404.293 554.869 423.713 599.458 468.506C594.387 532.482 565.996 583.17 514.284 620.569C452.527 604.166 407.886 566.423 380.362 507.341C407.284 447.527 452.088 408.845 514.772 391.294C568.592 429.141 598.581 481.421 604.739 548.132C558.231 596.102 501.789 617.347 435.412 611.868C396.641 556.238 385.771 495.228 402.802 428.838C464.052 399.277 525.661 398.97 587.629 427.918C605.787 495.253 595.261 557.809 556.05 615.585C486.987 622.172 427.642 600.503 378.014 550.579C383.706 479.375 415.326 422.992 472.875 381.431C541.514 399.712 591.102 441.682 621.638 507.341C591.704 573.73 541.954 616.639 472.387 636.068C412.73 594.059 379.512 536.085 372.733 462.145C424.28 409.044 486.79 385.55 560.265 391.662C603.123 453.235 615.115 520.721 596.24 594.12C528.531 626.747 460.464 627.054 392.038 595.04C372.036 520.696 383.684 451.664 426.982 387.944C503.143 380.725 568.557 404.643 623.223 459.698C616.911 538.131 582.061 600.208 518.676 645.931C443.153 625.772 388.618 579.575 355.071 507.341C388.016 434.375 442.714 387.239 519.164 365.932C584.658 412.103 621.105 475.772 628.504 556.94C571.919 615.172 503.34 640.915 422.767 634.171C375.822 566.654 362.709 492.692 383.428 412.284C457.594 376.59 532.119 376.284 607.003 411.364C628.849 492.716 616.08 568.224 568.695 637.888C485.436 645.74 413.953 619.572 354.249 559.387C361.182 473.726 399.26 405.954 468.483 356.069C550.888 378.106 610.37 428.53 646.929 507.341C610.972 586.882 551.328 638.245 467.995 661.43C396.664 611.098 356.988 541.733 348.967 453.337C410.591 389.975 485.239 361.982 572.91 369.359C623.942 442.819 638.177 523.258 615.614 610.674C534.989 649.434 454.006 649.741 372.664 611.594C348.974 523.233 362.865 441.249 414.337 365.641C504.695 357.158 582.246 385.574 646.989 450.89C639.434 543.779 598.127 617.247 523.067 671.293C433.779 647.378 369.35 592.727 329.781 507.341C368.748 421.223 433.34 365.633 523.555 340.57C600.723 395.064 643.628 470.124 652.27 565.749C585.608 634.241 504.892 664.483 410.121 656.474C355.002 577.07 339.647 490.155 364.054 395.73C451.136 353.903 538.577 353.597 626.377 394.81C651.912 490.18 636.9 578.64 581.341 660.191C483.884 669.307 400.265 638.642 330.483 568.195C338.659 468.078 383.195 388.915 464.091 330.707C560.262 356.5 629.638 415.378 672.219 507.341C630.24 600.034 560.702 659.851 463.603 686.792C380.599 628.136 334.465 547.381 325.202 444.528C396.903 370.905 483.687 338.414 585.556 347.056C644.762 432.403 661.239 525.794 634.988 627.228C541.447 672.121 447.548 672.428 353.291 628.148C325.912 525.77 342.045 430.833 401.691 343.338C506.246 333.59 595.934 366.504 670.754 442.082C661.958 549.427 614.193 634.285 527.459 696.655C424.405 668.984 350.082 605.879 304.49 507.341C349.48 408.071 423.966 344.027 527.947 315.208C616.789 378.026 666.152 464.475 676.036 574.557C599.296 653.311 506.443 688.051 397.476 678.777C334.183 587.486 316.584 487.619 344.68 379.176C444.678 331.216 545.035 330.91 645.751 378.256C674.974 487.643 657.719 589.056 593.986 682.494C482.333 692.875 386.576 657.712 306.717 577.003C316.135 462.429 367.129 371.877 459.7 305.345C569.636 334.894 648.906 402.225 697.51 507.341C649.508 613.186 570.075 681.457 459.212 712.154C364.533 645.175 311.941 553.03 301.436 435.72C383.214 351.835 482.136 314.846 598.201 324.752C665.582 421.988 684.302 528.331 654.362 643.782C547.905 694.808 441.09 695.115 333.917 644.702C302.849 528.306 321.226 420.417 389.046 321.035C507.798 310.022 609.623 347.435 694.52 433.273C684.481 555.076 630.258 651.324 531.851 722.017C415.032 690.59 330.814 619.032 279.199 507.341C330.212 394.919 414.592 322.421 532.339 289.846C632.854 360.987 688.675 458.827 699.801 583.365C612.985 672.38 507.995 711.619 384.831 701.08C313.363 597.901 293.522 485.082 325.306 362.622C438.22 308.529 551.493 308.223 665.125 361.702C698.037 485.107 678.539 599.472 606.632 704.797C480.781 716.443 372.888 676.781 282.952 585.812C293.612 456.781 351.064 354.838 455.308 279.983C579.01 313.287 668.174 389.073 722.801 507.341C668.776 626.338 579.449 703.064 454.82 737.516C348.467 662.213 289.418 558.678 277.671 426.912C369.526 332.766 480.584 291.278 610.847 302.449C686.401 411.572 707.364 530.867 673.735 660.336C554.363 717.495 434.632 717.802 314.543 661.256C279.787 530.843 300.406 410.002 376.4 298.732C509.349 286.454 623.311 328.365 718.286 424.465C707.005 560.724 646.324 668.362 536.242 747.379C405.658 712.197 311.546 632.184 253.908 507.341C310.944 381.767 405.218 300.814 536.73 264.484C648.92 343.949 711.199 453.179 723.567 592.173C626.673 691.45 509.546 735.187 372.185 723.383C292.544 608.317 270.459 482.545 305.932 346.068C431.762 285.843 557.951 285.536 684.499 345.148C721.099 482.57 699.358 609.887 619.277 727.1C479.23 740.011 359.199 695.851 259.186 594.62C271.088 451.133 334.998 337.8 450.916 254.621C588.384 291.681 687.442 375.921 748.092 507.341C688.044 639.491 588.823 724.67 450.428 762.878C332.402 679.251 266.894 564.327 253.905 418.104C355.837 313.696 479.033 267.711 623.492 280.146C707.221 401.156 730.426 533.404 693.109 676.89C560.821 740.182 428.174 740.488 295.169 677.81C256.725 533.379 279.587 399.586 363.755 276.429C510.901 262.886 637 309.296 742.051 415.657C729.528 566.373 662.389 685.401 540.634 772.741C396.284 733.803 292.278 645.336 228.617 507.341C291.676 368.614 395.844 279.208 541.122 239.122C664.985 326.91 733.722 447.53 747.332 600.981C640.362 710.519 511.098 758.754 359.54 745.686C271.724 618.733 247.397 480.009 286.558 329.514C425.304 263.156 564.409 262.849 703.873 328.595C744.161 480.033 720.178 620.303 631.922 749.403C477.678 763.579 345.511 714.92 235.421 603.428C248.565 445.484 318.933 320.761 446.525 229.259C597.758 270.075 706.71 362.769 773.383 507.341C707.312 652.643 598.197 746.276 446.037 788.24C316.336 696.29 244.371 569.975 230.139 409.296C342.148 294.627 477.481 244.143 636.138 257.843C728.04 390.741 753.489 535.941 712.483 693.444C567.279 762.869 421.717 763.175 275.795 694.363C233.662 535.916 258.767 389.17 351.109 254.126C512.452 239.318 650.688 290.226 765.817 406.849C752.052 572.021 678.455 702.439 545.026 798.103C386.91 755.409 273.01 658.488 203.327 507.341C272.408 355.462 386.471 257.602 545.514 213.76C681.051 309.872 756.246 441.882 771.098 609.789C654.05 729.589 512.649 782.322 346.894 767.989C250.905 629.148 224.335 477.472 267.184 312.96C418.846 240.469 570.867 240.162 723.247 312.041C767.224 477.497 740.997 630.719 644.568 771.706C476.126 787.147 331.822 733.99 211.655 612.236C226.041 439.836 302.867 303.723 442.133 203.897C607.131 248.469 725.978 349.617 798.673 507.341C726.58 665.795 607.571 767.882 441.645 813.602C300.271 713.328 221.847 575.623 206.374 400.488C328.46 275.557 475.93 220.575 648.783 235.54C748.86 380.325 776.551 538.477 731.857 709.998C573.737 785.556 415.259 785.862 256.421 710.917C210.6 538.453 237.947 378.755 338.464 231.823C514.004 215.751 664.377 271.157 789.582 398.041C774.575 577.669 694.52 719.478 549.418 823.465C377.536 777.015 253.742 671.64 178.036 507.341C253.14 342.31 377.097 235.996 549.906 188.398C697.117 292.833 778.769 436.233 794.864 618.598C667.739 748.659 514.201 805.89 334.249 790.292C230.085 639.564 201.272 474.935 247.81 296.406C412.388 217.782 577.325 217.475 742.62 295.487C790.286 474.96 761.817 641.134 657.213 794.009C474.575 810.714 318.134 753.059 187.889 621.044C203.518 434.187 286.801 286.684 437.741 178.535C616.505 226.863 745.246 336.465 823.964 507.341C745.848 678.947 616.945 789.488 437.253 838.964C284.205 730.367 199.324 581.272 182.608 391.679C314.771 256.488 474.378 197.007 661.428 213.237C769.679 369.909 799.613 541.014 751.231 726.552C580.195 808.242 408.801 808.549 237.047 727.471C187.537 540.989 217.128 368.339 325.819 209.52C515.555 192.183 678.065 252.087 813.348 389.233C797.099 583.318 710.586 736.516 553.809 848.827C368.162 798.621 234.474 684.792 152.745 507.341C233.872 329.158 367.723 214.39 554.297 163.036C713.182 275.795 801.293 430.585 818.629 627.406C681.427 767.728 515.752 829.458 321.604 812.595C209.266 649.98 178.21 472.399 228.437 279.852C405.93 195.095 583.783 194.789 761.994 278.933C813.348 472.423 782.636 651.55 669.859 816.312C473.023 834.282 304.445 772.129 164.124 629.852C180.994 428.539 270.736 269.646 433.349 153.173C625.879 205.257 764.514 323.313 849.255 507.341C765.116 692.099 626.319 811.094 432.862 864.327C268.14 747.405 176.8 586.92 158.843 382.871C301.083 237.418 472.827 173.439 674.074 190.934C790.499 359.493 822.676 543.551 770.605 743.106C586.653 830.929 402.343 831.236 217.673 744.025C164.475 543.526 196.308 357.923 313.173 187.217C517.107 168.615 691.754 233.017 837.114 380.425C819.622 588.966 726.651 753.554 558.201 874.19C358.789 820.227 215.206 697.944 127.454 507.341C214.604 316.006 358.349 192.784 558.689 137.673C729.248 258.756 823.816 424.937 842.395 636.214C695.116 786.798 517.304 853.026 308.958 834.898C188.446 660.395 155.148 469.862 209.063 263.298C399.472 172.408 590.241 172.102 781.368 262.379C836.411 469.887 803.456 661.966 682.504 838.616C471.472 857.85 290.757 791.198 140.358 638.661C158.47 422.891 254.67 252.607 428.958 127.81C635.253 183.65 783.782 310.161 874.546 507.341C784.384 705.251 635.692 832.701 428.47 889.689C252.074 764.444 154.276 592.569 135.077 374.063C287.394 218.349 471.275 149.871 686.719 168.631C811.318 349.078 845.738 546.087 789.979 759.659C593.111 853.616 395.885 853.923 198.299 760.579C141.413 546.063 175.489 347.507 300.528 164.914C518.658 145.047 705.442 213.948 860.879 371.616C842.146 594.615 742.717 770.593 562.593 899.552C349.415 841.834 195.938 711.097 102.163 507.341C195.336 302.854 348.975 171.177 563.081 112.311C745.313 241.718 846.34 419.288 866.16 645.022C708.804 805.867 518.855 876.594 296.313 857.201C167.627 670.811 132.085 467.325 189.689 246.745C393.014 149.721 596.699 149.415 800.742 245.825C859.473 467.35 824.275 672.381 695.149 860.919C469.92 881.418 277.068 810.268 116.593 647.469C135.947 417.242 238.605 235.569 424.566 102.448C644.627 162.044 803.05 297.008 899.837 507.341C803.652 718.403 645.066 854.307 424.078 915.051C236.009 781.482 131.753 598.217 111.311 365.255C273.706 199.279 469.724 126.304 699.365 146.328C832.138 338.662 868.8 548.624 809.353 776.213C599.569 876.303 389.427 876.61 178.926 777.133C118.35 548.599 154.669 337.092 287.882 142.611C520.21 121.479 719.131 194.878 884.645 362.808C864.669 600.263 758.783 787.631 566.984 924.914C340.041 863.44 176.67 724.249 76.8725 507.341C176.068 289.702 339.601 149.571 567.472 86.9493C761.379 224.68 868.863 413.64 889.926 653.83C722.493 824.937 520.407 900.161 283.667 879.504C146.807 681.227 109.023 464.789 170.315 230.191C386.556 127.035 603.157 126.728 820.116 229.271C882.535 464.814 845.095 682.797 707.795 883.222C468.369 904.986 263.38 829.337 92.827 656.277C113.423 411.594 222.539 218.53 420.174 77.0863C654.001 140.438 822.318 283.856 925.128 507.341C822.92 731.555 654.44 875.913 419.686 940.413C219.943 798.521 109.229 603.865 87.5458 356.447C260.017 180.21 468.172 102.736 712.01 124.025C852.957 328.246 891.863 551.161 828.727 792.767C606.027 898.99 382.969 899.296 159.552 793.687C95.288 551.136 133.85 326.676 275.237 120.308C521.761 97.9114 732.819 175.809 908.41 354C887.193 605.911 774.848 804.67 571.376 950.276C330.667 885.046 157.402 737.401 51.5816 507.341C156.8 276.55 330.228 127.965 571.864 61.5872C777.444 207.641 891.387 407.991 913.692 662.638C736.181 844.006 521.958 923.729 271.022 901.808C125.988 691.642 85.9605 462.252 150.941 213.637C380.099 104.348 609.615 104.041 839.49 212.717C905.598 462.277 865.915 693.213 720.44 905.525C466.817 928.554 249.691 848.407 69.0614 665.085C90.8999 405.946 206.474 201.492 415.783 51.7242C663.374 118.832 841.586 270.704 950.418 507.341C842.188 744.708 663.814 897.519 415.295 965.775C203.877 815.559 86.7059 609.514 63.7802 347.639C246.329 161.14 466.621 79.1679 724.655 101.722C873.777 317.831 914.925 553.697 848.1 809.321C612.485 921.677 376.511 921.983 140.178 810.241C72.2257 553.672 113.03 316.26 262.592 98.0048C523.313 74.3436 746.508 156.739 932.176 345.192C909.716 611.56 790.914 821.708 575.768 975.638C321.293 906.652 138.134 750.553 26.2908 507.341C137.532 263.397 320.854 106.359 576.256 36.2251C793.51 190.603 913.91 402.343 937.457 671.447C749.87 863.076 523.51 947.297 258.376 924.111C105.168 702.058 62.8982 459.716 131.567 197.083C373.641 81.6608 616.073 81.3542 858.864 196.163C928.66 459.74 886.734 703.629 733.086 927.828C465.266 952.121 236.003 867.476 45.2958 673.893C68.3764 400.297 190.408 184.453 411.391 26.3621C672.748 97.2258 860.854 257.552 975.709 507.341C861.456 757.86 673.188 919.125 410.903 991.137C187.812 832.598 64.1824 615.162 40.0146 338.83C232.64 142.071 465.069 55.6001 737.301 79.4189C894.596 307.415 937.988 556.234 867.474 825.875C618.943 944.364 370.053 944.67 120.804 826.795C49.1633 556.209 92.2108 305.845 249.946 75.7018C524.864 50.7758 760.196 137.67 955.942 336.384C932.24 617.208 806.979 838.747 580.159 1001C311.919 928.258 118.866 763.705 1 507.341C118.264 250.245 311.48 84.7527 580.647 10.863C809.576 173.564 936.434 396.695 961.223 680.255C763.558 882.145 525.061 970.865 245.731 946.414C84.3485 712.474 39.8358 457.179 112.193 180.529C367.183 58.9739 622.531 58.6674 878.238 179.609C951.722 457.204 907.554 714.044 745.731 950.131C463.714 975.689 222.314 886.546 21.5302 682.701C45.8528 394.649 174.343 167.415 406.999 1C682.122 75.6197 880.122 244.4 1001 507.341" stroke="black"/>
</svg>
