<svg width="1002" height="1002" viewBox="0 0 1002 1002" fill="none" xmlns="http://www.w3.org/2000/svg">
<path d="M518.095 509.022C518.397 511.328 518.543 513.673 518.535 516.057C518.201 518.475 517.701 520.888 517.035 523.295C516.032 525.643 514.864 527.936 513.53 530.175C511.875 532.258 510.07 534.238 508.115 536.116C505.882 537.745 503.526 539.228 501.048 540.566C498.362 541.575 495.593 542.404 492.742 543.052C489.774 543.313 486.773 543.37 483.739 543.223C480.694 542.656 477.673 541.877 474.675 540.885C471.782 539.47 468.969 537.85 466.238 536.025C463.726 533.808 461.35 531.41 459.112 528.83C457.198 525.922 455.47 522.871 453.927 519.677C452.796 516.248 451.888 512.729 451.203 509.12C450.991 505.391 451.025 501.636 451.305 497.853C452.087 494.083 453.121 490.355 454.407 486.668C456.187 483.134 458.206 479.71 460.463 476.398C463.171 473.374 466.085 470.526 469.207 467.854C472.697 465.593 476.345 463.563 480.151 461.765C484.212 460.475 488.369 459.459 492.62 458.715C496.988 458.546 501.378 458.672 505.788 459.095C510.161 460.119 514.477 461.441 518.734 463.062C522.795 465.267 526.72 467.751 530.507 470.515C533.946 473.802 537.175 477.328 540.194 481.093C542.731 485.279 544.997 489.644 546.993 494.187C548.4 499.014 549.492 503.944 550.271 508.976C550.393 514.127 550.178 519.294 549.627 524.475C548.395 529.596 546.828 534.639 544.924 539.606C542.366 544.327 539.496 548.88 536.315 553.266C532.554 557.232 528.53 560.948 524.244 564.413C519.496 567.307 514.556 569.883 509.422 572.142C503.984 573.711 498.44 574.916 492.79 575.755C487.021 575.833 481.244 575.523 475.457 574.823C469.754 573.344 464.145 571.479 458.628 569.229C453.399 566.233 448.363 562.884 443.52 559.182C439.154 554.824 435.071 550.171 431.27 545.221C428.112 539.757 425.308 534.079 422.859 528.186C421.177 521.961 419.899 515.621 419.027 509.166C418.994 502.592 419.39 496.014 420.213 489.434C421.893 482.963 423.995 476.604 426.518 470.357C429.853 464.45 433.573 458.766 437.678 453.307C442.492 448.4 447.625 443.816 453.077 439.556C459.082 436.03 465.315 432.908 471.777 430.189C478.59 428.339 485.522 426.947 492.572 426.013C499.741 426.026 506.907 426.52 514.07 427.495C521.102 429.432 528.005 431.839 534.781 434.718C541.177 438.504 547.326 442.717 553.225 447.358C558.517 452.787 563.454 458.568 568.036 464.702C571.817 471.444 575.158 478.436 578.06 485.678C580.018 493.302 581.481 501.052 582.447 508.929C582.39 516.926 581.814 524.915 580.719 532.894C578.589 540.717 575.954 548.391 572.813 555.917C568.699 563.011 564.128 569.825 559.101 576.357C553.233 582.206 546.99 587.657 540.373 592.711C533.111 596.87 525.585 600.539 517.795 603.718C509.607 605.848 501.287 607.427 492.837 608.457C484.268 608.353 475.714 607.675 467.175 606.423C458.814 604.031 450.616 601.081 442.581 597.573C435.017 592.997 427.757 587.919 420.801 582.339C414.583 575.84 408.792 568.931 403.429 561.613C399.025 553.593 395.146 545.287 391.792 536.695C389.558 527.674 387.911 518.513 386.85 509.213C386.997 499.793 387.754 490.393 389.121 481.015C391.699 471.842 394.868 462.852 398.629 454.047C403.52 445.766 408.941 437.822 414.892 430.216C421.814 423.425 429.166 417.106 436.948 411.259C445.468 406.468 454.286 402.252 463.404 398.613C472.968 396.203 482.675 394.436 492.525 393.311C502.494 393.506 512.436 394.368 522.352 395.895C532.042 398.744 541.534 402.237 550.828 406.373C559.56 411.74 567.932 417.683 575.944 424.201C583.089 431.771 589.733 439.808 595.878 448.31C600.903 457.608 605.32 467.228 609.128 477.169C611.637 487.589 613.469 498.16 614.623 508.882C614.387 519.726 613.449 530.536 611.811 541.313C608.783 551.837 605.08 562.142 600.702 572.227C595.033 581.695 588.761 590.769 581.886 599.448C573.911 607.181 565.45 614.367 556.502 621.009C546.725 626.432 536.614 631.194 526.169 635.293C515.229 637.984 504.134 639.939 492.885 641.159C481.516 640.872 470.185 639.827 458.893 638.023C447.874 634.718 437.087 630.683 426.534 625.917C416.635 619.76 407.151 612.953 398.083 605.496C390.011 596.855 382.513 587.691 375.587 578.004C369.939 567.429 364.985 556.495 360.724 545.204C357.939 533.386 355.922 521.405 354.674 509.26C355.001 496.993 356.119 484.772 358.029 472.596C361.505 460.721 365.742 449.101 370.739 437.736C377.186 427.081 384.309 416.878 392.107 407.125C401.135 398.451 410.706 390.396 420.819 382.961C431.853 376.905 443.257 371.597 455.03 367.037C467.345 364.067 479.828 361.924 492.477 360.609C505.246 360.986 517.965 362.215 530.634 364.295C542.982 368.057 555.063 372.635 566.875 378.029C577.942 384.977 588.538 392.649 598.662 401.044C607.66 410.756 616.013 421.047 623.719 431.919C629.99 443.772 635.482 456.02 640.195 468.66C643.256 481.876 645.458 495.268 646.799 508.836C646.383 522.525 645.084 536.157 642.903 549.732C638.977 562.958 634.207 575.893 628.591 588.538C621.366 600.379 613.393 611.713 604.671 622.539C594.59 632.155 583.91 641.077 572.631 649.306C560.34 655.995 547.643 661.849 534.543 666.869C520.852 670.12 506.982 672.451 492.932 673.861C478.763 673.392 464.656 671.98 450.611 669.623C436.933 665.405 423.559 660.285 410.487 654.262C398.253 646.523 386.545 637.987 375.364 628.653C365.44 617.871 356.233 606.452 347.746 594.396C340.853 581.264 334.823 567.703 329.657 553.713C326.32 539.099 323.934 524.297 322.498 509.306C323.004 494.194 324.484 479.151 326.937 464.177C331.311 449.601 336.616 435.35 342.85 421.425C350.853 408.397 359.676 395.934 369.321 384.034C380.456 373.477 392.246 363.687 404.69 354.664C418.239 347.343 432.228 340.942 446.656 335.462C461.723 331.931 476.981 329.412 492.43 327.906C507.999 328.467 523.494 330.063 538.916 332.695C553.922 337.37 568.591 343.033 582.922 349.685C596.324 358.214 609.144 367.614 621.38 377.887C632.232 389.74 642.292 402.287 651.561 415.527C659.076 429.937 665.643 444.811 671.262 460.151C674.875 476.163 677.446 492.376 678.975 508.789C678.38 525.324 676.72 541.778 673.995 558.151C669.171 574.078 663.333 589.644 656.48 604.849C647.7 619.063 638.026 632.657 627.457 645.63C615.269 657.129 602.37 667.787 588.76 677.604C573.954 685.557 558.673 692.505 542.916 698.445C526.474 702.256 509.829 704.962 492.979 706.563C476.01 705.912 459.127 704.132 442.329 701.223C425.993 696.092 410.03 689.886 394.44 682.606C379.87 673.287 365.939 663.021 352.646 651.81C340.868 638.886 329.954 625.212 319.904 610.788C311.767 595.1 304.662 578.911 298.59 562.222C294.701 544.812 291.945 527.189 290.322 509.353C291.007 491.395 292.848 473.53 295.845 455.758C301.117 438.48 307.489 421.599 314.961 405.115C324.519 389.713 335.044 374.989 346.536 360.943C359.778 348.502 373.786 336.977 388.561 326.366C404.624 317.78 421.198 310.287 438.283 303.886C456.1 299.795 474.134 296.901 492.383 295.204C510.752 295.947 529.023 297.911 547.198 301.095C564.863 306.683 582.12 313.431 598.969 321.341C614.707 331.45 629.75 342.58 644.099 354.73C656.803 368.725 668.571 383.526 679.402 399.135C688.162 416.101 695.805 433.603 702.33 451.642C706.494 470.45 709.435 489.484 711.152 508.742C710.377 528.123 708.355 547.399 705.087 566.57C699.365 585.199 692.459 603.395 684.369 621.159C674.034 637.747 662.658 653.601 650.242 668.721C635.947 682.103 620.83 694.497 604.889 705.901C587.568 715.12 569.702 723.16 551.29 730.021C532.097 734.392 512.676 737.474 493.027 739.266C473.258 738.432 453.598 736.284 434.047 732.823C415.053 726.779 396.502 719.488 378.394 710.95C361.488 700.05 345.333 688.056 329.928 674.967C316.297 659.902 303.675 643.973 292.063 627.179C282.68 608.936 274.5 590.12 267.522 570.731C263.082 550.525 259.957 530.081 258.146 509.4C259.011 488.596 261.213 467.909 264.753 447.34C270.923 427.36 278.363 407.848 287.072 388.804C298.185 371.029 310.411 354.045 323.75 337.852C339.099 323.528 355.326 310.267 372.432 298.069C391.01 288.217 410.169 279.631 429.909 272.31C450.478 267.658 471.286 264.389 492.335 262.502C513.504 263.427 534.553 265.758 555.479 269.495C575.803 275.996 595.648 283.829 615.016 292.996C633.089 304.687 650.356 317.546 666.817 331.573C681.375 347.709 694.85 364.766 707.244 382.744C717.249 402.265 725.966 422.395 733.397 443.133C738.113 464.737 741.423 486.591 743.328 508.696C742.373 530.923 739.99 553.02 736.179 574.989C729.559 596.319 721.586 617.147 712.258 637.47C700.367 656.432 687.291 674.546 673.028 691.812C656.626 707.078 639.289 721.207 621.019 734.199C601.183 744.683 580.731 753.815 559.663 761.597C537.719 766.528 515.523 769.985 493.074 771.968C470.505 770.951 448.069 768.437 425.765 764.423C404.113 757.467 382.973 749.09 362.347 739.295C343.106 726.813 324.727 713.09 307.209 698.124C291.725 680.917 277.396 662.733 264.221 643.571C253.594 622.771 244.338 601.328 236.455 579.24C231.463 556.238 227.968 532.973 225.97 509.446C227.014 485.797 229.578 462.288 233.661 438.921C240.729 416.239 249.237 394.096 259.183 372.493C271.852 352.345 285.779 333.101 300.965 314.761C318.42 298.554 336.866 283.557 356.303 269.771C377.396 258.655 399.14 248.976 421.535 240.734C444.855 235.522 468.439 231.877 492.288 229.8C516.257 230.907 540.082 233.606 563.761 237.895C586.743 245.309 609.177 254.227 631.063 264.652C651.471 277.924 670.962 292.512 689.536 308.416C705.946 326.693 721.13 346.005 735.086 366.352C746.335 388.43 756.128 411.187 764.465 434.624C769.732 459.024 773.411 483.699 775.504 508.649C774.37 533.722 771.626 558.641 767.271 583.407C759.753 607.44 750.712 630.898 740.147 653.781C726.701 675.116 711.923 695.49 695.813 714.903C677.305 732.052 657.749 747.917 637.148 762.497C614.797 774.245 591.76 784.47 568.037 793.172C543.342 798.665 518.37 802.497 493.122 804.67C467.752 803.471 442.539 800.589 417.483 796.023C393.172 788.154 369.445 778.692 346.3 767.639C324.724 753.577 304.121 738.124 284.491 721.281C267.154 701.933 251.116 681.494 236.379 659.962C224.508 636.607 214.177 612.536 205.387 587.749C199.844 561.951 195.98 535.865 193.794 509.493C195.017 482.997 197.942 456.667 202.569 430.502C210.535 405.118 220.11 380.345 231.294 356.183C245.518 333.661 261.146 312.157 278.18 291.67C297.742 273.58 318.406 256.847 340.173 241.473C363.781 229.092 388.111 218.321 413.162 209.158C439.233 203.386 465.592 199.366 492.24 197.098C519.01 198.388 545.611 201.454 572.043 206.295C597.683 214.621 622.705 224.625 647.109 236.308C669.853 251.16 691.568 267.478 712.254 285.259C730.518 305.678 747.409 327.245 762.927 349.961C775.421 374.594 786.29 399.979 795.532 426.115C801.351 453.311 805.4 480.807 807.68 508.602C806.367 536.521 803.261 564.262 798.363 591.826C789.947 618.561 779.838 644.649 768.036 670.091C753.034 693.8 736.555 716.434 718.599 737.994C697.983 757.026 676.209 774.626 653.277 790.794C628.412 803.808 602.79 815.126 576.411 824.748C548.964 830.801 521.217 835.009 493.169 837.372C465 835.991 437.01 832.741 409.201 827.623C382.232 818.841 355.916 808.294 330.253 795.983C306.341 780.34 283.515 763.158 261.773 744.438C242.582 722.949 224.837 700.254 208.538 676.354C195.421 650.442 184.015 623.744 174.32 596.259C168.226 567.664 163.992 538.757 161.618 509.54C163.02 480.198 166.307 451.046 171.477 422.083C180.341 393.998 190.984 366.594 203.405 339.872C219.184 314.977 236.514 291.213 255.394 268.579C277.063 248.605 299.947 230.137 324.044 213.176C350.167 199.53 377.081 187.665 404.788 177.582C433.61 171.25 462.745 166.854 492.193 164.395C521.762 165.868 551.14 169.301 580.325 174.695C608.624 183.934 636.234 195.024 663.156 207.963C688.236 224.397 712.174 242.443 734.972 262.102C755.089 284.662 773.688 308.485 790.769 333.569C804.508 360.758 816.451 388.77 826.6 417.606C832.97 447.599 837.388 477.915 839.856 508.556C838.364 539.32 834.896 569.883 829.455 600.245C820.141 629.681 808.965 658.4 795.925 686.402C779.368 712.484 761.188 737.378 741.384 761.085C718.662 782.001 694.669 801.336 669.406 819.092C642.026 833.37 613.819 845.781 584.784 856.324C554.586 862.937 524.064 867.52 493.217 870.074C462.247 868.511 431.481 864.894 400.919 859.223C371.292 849.528 342.387 837.896 314.206 824.327C287.959 807.103 262.908 788.192 239.054 767.595C218.01 743.964 198.558 719.014 180.696 692.745C166.335 664.278 153.854 634.952 143.252 604.768C136.607 573.377 132.003 541.65 129.442 509.586C131.024 477.399 134.672 445.425 140.385 413.664C150.147 382.877 161.858 352.843 175.516 323.561C192.851 296.293 211.882 270.269 232.609 245.488C256.385 223.631 281.487 203.427 307.915 184.878C336.552 169.967 366.052 157.01 396.415 146.007C427.988 139.114 459.898 134.343 492.145 131.693C524.515 133.348 556.669 137.149 588.607 143.095C619.564 153.247 649.763 165.422 679.203 179.619C706.618 197.634 732.78 217.409 757.691 238.946C779.661 263.647 799.968 289.724 818.61 317.178C833.594 346.923 846.613 377.562 857.667 409.097C864.588 441.886 869.377 475.023 872.032 508.509C870.36 542.12 866.532 575.505 860.547 608.664C850.335 640.802 838.091 672.151 823.814 702.713C805.702 731.168 785.82 758.322 764.17 784.176C739.34 806.975 713.129 828.046 685.535 847.389C655.641 862.933 624.848 876.436 593.158 887.9C560.209 895.073 526.911 900.032 493.264 902.777C459.494 901.031 425.952 897.046 392.637 890.823C360.352 880.215 328.859 867.498 298.159 852.672C269.577 833.867 242.302 813.227 216.336 790.752C193.439 764.98 172.278 737.775 152.855 709.137C137.249 678.114 123.692 646.16 112.185 613.277C104.988 579.089 100.015 544.542 97.2657 509.633C99.0271 474.6 103.036 439.804 109.293 405.245C119.953 371.757 132.731 339.092 147.627 307.251C166.517 277.609 187.249 249.324 209.823 222.398C235.706 198.657 263.027 176.718 291.786 156.581C322.938 140.405 355.023 126.355 388.041 114.431C422.365 106.978 457.051 101.831 492.098 98.9909C527.268 100.828 562.198 104.997 596.889 111.495C630.504 122.56 663.291 135.82 695.25 151.275C725 170.87 753.386 192.375 780.409 215.789C804.233 242.631 826.247 270.964 846.452 300.786C862.68 333.087 876.774 366.354 888.734 400.588C896.207 436.173 901.365 472.131 904.208 508.462C902.357 544.919 898.167 581.126 891.639 617.083C880.529 651.922 867.217 685.903 851.703 719.023C832.035 749.852 810.453 779.266 786.955 807.267C760.019 831.949 731.589 854.756 701.664 875.687C669.255 892.495 635.878 907.092 601.532 919.476C565.831 927.209 529.758 932.544 493.312 935.479C456.741 933.55 420.423 929.198 384.356 922.423C349.411 910.902 315.33 897.1 282.112 881.016C251.194 860.63 221.696 838.261 193.617 813.909C168.867 785.995 145.999 756.535 125.013 725.528C108.162 691.95 93.5305 657.369 81.1175 621.786C73.3689 584.802 68.0262 547.434 65.0896 509.68C67.0303 471.8 71.4009 434.183 78.2011 396.826C89.7594 360.636 103.605 325.341 119.738 290.94C140.184 258.925 162.617 228.38 187.038 199.307C215.027 173.682 244.567 150.008 275.657 128.283C309.323 110.842 343.993 95.6995 379.667 82.855C416.743 74.8414 454.204 69.3193 492.05 66.2887C530.021 68.3086 567.728 72.8442 605.171 79.8955C641.444 91.8727 676.82 106.218 711.297 122.931C743.382 144.107 773.992 167.341 803.127 192.632C828.804 221.616 852.526 252.203 874.293 284.395C891.766 319.251 906.936 355.146 919.802 392.079C927.826 430.46 933.354 469.239 936.384 508.416C934.354 547.718 929.802 586.747 922.731 625.502C910.723 663.043 896.344 699.654 879.592 735.334C858.369 768.536 835.085 800.211 809.741 830.358C780.698 856.923 750.049 881.466 717.793 903.985C682.87 922.058 646.907 937.747 609.905 951.052C571.454 959.345 532.605 965.055 493.359 968.181C453.989 966.07 414.894 961.351 376.074 954.023C338.471 941.59 301.802 926.702 266.065 909.36C232.812 887.393 201.09 863.295 170.899 837.066C144.296 807.011 119.72 775.296 97.1714 741.92C79.0761 705.785 63.369 668.577 50.0501 630.295C41.75 590.515 36.0378 550.326 32.9135 509.727C35.0337 469.001 39.7655 428.561 47.1091 388.408C59.5654 349.515 74.4787 311.589 91.8491 274.629C113.85 240.241 137.984 207.436 164.252 176.216C194.349 148.708 226.107 123.298 259.528 99.9854C295.709 81.2796 332.964 65.0442 371.294 51.2792C411.121 42.7052 451.357 36.8076 492.003 33.5865C532.773 35.7889 573.257 40.6919 613.453 48.2955C652.385 61.1855 690.348 76.6158 727.344 94.5864C761.765 117.344 794.598 142.307 825.846 169.475C853.376 200.6 878.805 233.443 902.135 268.003C920.853 305.416 937.098 343.938 950.869 383.569C959.445 424.747 965.342 466.347 968.56 508.369C966.35 550.517 961.438 592.368 953.823 633.921C940.917 674.164 925.47 713.405 907.481 751.645C884.702 787.22 859.717 821.155 832.526 853.448C801.376 881.898 768.508 908.176 733.923 932.282C696.484 951.62 657.936 968.402 618.279 982.627C577.076 991.482 535.452 997.567 493.407 1000.88C451.236 998.59 409.364 993.503 367.792 985.623C327.531 972.277 288.273 956.304 250.018 937.705C214.43 914.156 180.484 888.329 148.181 860.223C119.724 828.027 93.4407 794.056 69.3299 758.311C49.9898 719.621 33.2074 679.785 18.9826 638.804C10.1311 596.228 4.04936 553.218 0.737416 509.773C3.03696 466.202 8.13017 422.94 16.0171 379.989C29.3714 338.395 45.3524 297.838 63.9601 258.319C87.5164 221.557 113.352 186.492 141.467 153.125C173.67 123.734 207.647 96.5881 243.399 71.6878C282.094 51.717 321.935 34.3889 362.92 19.7034C405.498 10.569 448.51 4.29603 491.955 0.884326C535.526 3.26913 578.786 8.5395 621.735 16.6955C663.325 30.4983 703.877 47.0139 743.391 66.2421C780.147 90.5806 815.204 117.272 848.564 146.318C877.947 179.584 905.085 214.682 929.977 251.612C949.939 291.58 967.259 332.73 981.937 375.06C991.064 419.034 997.331 463.455 1000.74 508.322" stroke="black" stroke-width="0.2"/>
</svg>
